<svg width="1200" height="900" viewBox="0 0 1200 900" fill="none" xmlns="http://www.w3.org/2000/svg">
  <rect width="1200" height="900" rx="64" fill="url(#bg)"/>
  <g opacity="0.72">
    <circle cx="166" cy="165" r="126" fill="#DDEBFA"/>
    <circle cx="1050" cy="134" r="146" fill="#EDF5FF"/>
    <circle cx="1048" cy="758" r="204" fill="#D9E8F7"/>
  </g>
  <rect x="90" y="110" width="1020" height="680" rx="42" fill="white" fill-opacity="0.72"/>
  <rect x="126" y="150" width="948" height="82" rx="28" fill="#F5F8FC"/>
  <circle cx="173" cy="191" r="10" fill="#D9E6F4"/>
  <circle cx="207" cy="191" r="10" fill="#D9E6F4"/>
  <circle cx="241" cy="191" r="10" fill="#D9E6F4"/>
  <rect x="284" y="172" width="236" height="38" rx="19" fill="#E5EFFB"/>
  <rect x="126" y="274" width="282" height="468" rx="28" fill="#F5F8FC"/>
  <rect x="444" y="274" width="630" height="468" rx="28" fill="#F9FBFE"/>
  <rect x="160" y="314" width="214" height="18" rx="9" fill="#B7D3F4"/>
  <rect x="160" y="360" width="186" height="14" rx="7" fill="#D7E5F4"/>
  <rect x="160" y="390" width="162" height="14" rx="7" fill="#D7E5F4"/>
  <rect x="160" y="420" width="148" height="14" rx="7" fill="#D7E5F4"/>
  <rect x="160" y="478" width="214" height="126" rx="24" fill="url(#cardBlue)"/>
  <rect x="486" y="318" width="266" height="24" rx="12" fill="#274A74"/>
  <rect x="486" y="360" width="380" height="16" rx="8" fill="#D8E4F2"/>
  <rect x="486" y="392" width="520" height="16" rx="8" fill="#D8E4F2"/>
  <rect x="486" y="454" width="548" height="230" rx="28" fill="url(#glass)"/>
  <path d="M558 606C615.567 540.325 693.927 537.898 793 593.993C874.174 639.96 945.507 644.489 1007 607.58" stroke="#0A84FF" stroke-width="16" stroke-linecap="round"/>
  <circle cx="558" cy="606" r="18" fill="#0A84FF"/>
  <circle cx="791" cy="594" r="18" fill="#0A84FF"/>
  <circle cx="1007" cy="608" r="18" fill="#0A84FF"/>
  <rect x="486" y="148" width="198" height="36" rx="18" fill="#E7F2FF"/>
  <text x="186" y="540" fill="white" font-family="Arial, Helvetica, sans-serif" font-size="44" font-weight="700">India</text>
  <text x="186" y="588" fill="white" font-family="Arial, Helvetica, sans-serif" font-size="44" font-weight="700">Prison Portal</text>
  <text x="487" y="174" fill="#0A84FF" font-family="Arial, Helvetica, sans-serif" font-size="22" font-weight="700" letter-spacing="3">KNOWLEDGE LAYER</text>
  <text x="486" y="692" fill="#274A74" font-family="Arial, Helvetica, sans-serif" font-size="22" font-weight="700">Open repository of prison intelligence</text>
  <defs>
    <linearGradient id="bg" x1="92" y1="76" x2="1094" y2="824" gradientUnits="userSpaceOnUse">
      <stop stop-color="#EEF5FB"/>
      <stop offset="1" stop-color="#D9E4F0"/>
    </linearGradient>
    <linearGradient id="cardBlue" x1="160" y1="478" x2="374" y2="604" gradientUnits="userSpaceOnUse">
      <stop stop-color="#66AFFF"/>
      <stop offset="1" stop-color="#0A84FF"/>
    </linearGradient>
    <linearGradient id="glass" x1="486" y1="454" x2="1034" y2="684" gradientUnits="userSpaceOnUse">
      <stop stop-color="#EFF6FD"/>
      <stop offset="1" stop-color="#DDE9F6"/>
    </linearGradient>
  </defs>
</svg>
